<?xml version="1.0" encoding="UTF-8" standalone="no"?>
<!DOCTYPE svg PUBLIC "-//W3C//DTD SVG 1.1//EN"
 "http://www.w3.org/Graphics/SVG/1.1/DTD/svg11.dtd">
<!-- Generated by graphviz version 2.43.0 (0)
 -->
<!-- Title: arks_repr Pages: 1 -->
<svg width="332pt" height="217pt"
 viewBox="0.00 0.00 331.89 217.00" xmlns="http://www.w3.org/2000/svg" xmlns:xlink="http://www.w3.org/1999/xlink">
<g id="graph0" class="graph" transform="scale(1 1) rotate(0) translate(4 213)">
<title>arks_repr</title>
<polygon fill="white" stroke="transparent" points="-4,4 -4,-213 327.89,-213 327.89,4 -4,4"/>
<g id="clust1" class="cluster">
<title>clusterQ0</title>
<polygon fill="none" stroke="black" points="8,-37 8,-201 77.3,-201 77.3,-37 8,-37"/>
<text text-anchor="middle" x="42.65" y="-185.8" font-family="Times,serif" font-size="14.00">Q0</text>
</g>
<g id="clust2" class="cluster">
<title>clusterQ1</title>
<polygon fill="none" stroke="black" points="127.3,-22 127.3,-186 196.59,-186 196.59,-22 127.3,-22"/>
<text text-anchor="middle" x="161.94" y="-170.8" font-family="Times,serif" font-size="14.00">Q1</text>
</g>
<g id="clust3" class="cluster">
<title>clusterQ2</title>
<polygon fill="none" stroke="black" points="246.59,-8 246.59,-172 315.89,-172 315.89,-8 246.59,-8"/>
<text text-anchor="middle" x="281.24" y="-156.8" font-family="Times,serif" font-size="14.00">Q2</text>
</g>
<!-- q0_0 -->
<g id="node1" class="node">
<title>q0_0</title>
<ellipse fill="#add8e6" stroke="#add8e6" cx="42.65" cy="-143" rx="26.8" ry="26.8"/>
<text text-anchor="middle" x="42.65" y="-139.3" font-family="Times,serif" font-size="14.00">|0⟩</text>
</g>
<!-- q1_0 -->
<g id="node3" class="node">
<title>q1_0</title>
<ellipse fill="#add8e6" stroke="#add8e6" cx="161.94" cy="-128" rx="26.8" ry="26.8"/>
<text text-anchor="middle" x="161.94" y="-124.3" font-family="Times,serif" font-size="14.00">|0⟩</text>
</g>
<!-- q0_0&#45;&#45;q1_0 -->
<g id="edge1" class="edge">
<title>q0_0&#45;&#45;q1_0</title>
<path fill="none" stroke="#8a4b8f" d="M69.1,-139.75C88.64,-137.25 115.51,-133.81 135.14,-131.3"/>
<text text-anchor="start" x="87.3" y="-139.8" font-family="Times,serif" font-size="9.00" fill="#8a4b8f">(0.5+0j)</text>
</g>
<!-- q0_0&#45;&#45;q1_0 -->
<g id="edge3" class="edge">
<title>q0_0&#45;&#45;q1_0</title>
<path fill="none" stroke="#698a56" d="M69.1,-139.75C88.64,-137.25 115.51,-133.81 135.14,-131.3"/>
<text text-anchor="start" x="87.3" y="-121.8" font-family="Times,serif" font-size="9.00" fill="#698a56">(0.5+0j)</text>
</g>
<!-- q0_1 -->
<g id="node2" class="node">
<title>q0_1</title>
<ellipse fill="#add8e6" stroke="#add8e6" cx="42.65" cy="-72" rx="26.8" ry="26.8"/>
<text text-anchor="middle" x="42.65" y="-68.3" font-family="Times,serif" font-size="14.00">|1⟩</text>
</g>
<!-- q1_1 -->
<g id="node4" class="node">
<title>q1_1</title>
<ellipse fill="#add8e6" stroke="#add8e6" cx="161.94" cy="-57" rx="26.8" ry="26.8"/>
<text text-anchor="middle" x="161.94" y="-53.3" font-family="Times,serif" font-size="14.00">|1⟩</text>
</g>
<!-- q0_1&#45;&#45;q1_1 -->
<g id="edge5" class="edge">
<title>q0_1&#45;&#45;q1_1</title>
<path fill="none" stroke="#cca714" d="M69.1,-68.75C88.64,-66.25 115.51,-62.81 135.14,-60.3"/>
<text text-anchor="start" x="87.3" y="-68.8" font-family="Times,serif" font-size="9.00" fill="#cca714">(0.5+0j)</text>
</g>
<!-- q0_1&#45;&#45;q1_1 -->
<g id="edge7" class="edge">
<title>q0_1&#45;&#45;q1_1</title>
<path fill="none" stroke="#1c711e" d="M69.1,-68.75C88.64,-66.25 115.51,-62.81 135.14,-60.3"/>
<text text-anchor="start" x="87.3" y="-50.8" font-family="Times,serif" font-size="9.00" fill="#1c711e">(0.5+0j)</text>
</g>
<!-- q2_0 -->
<g id="node5" class="node">
<title>q2_0</title>
<ellipse fill="#add8e6" stroke="#add8e6" cx="281.24" cy="-114" rx="26.8" ry="26.8"/>
<text text-anchor="middle" x="281.24" y="-110.3" font-family="Times,serif" font-size="14.00">|0⟩</text>
</g>
<!-- q1_0&#45;&#45;q2_0 -->
<g id="edge2" class="edge">
<title>q1_0&#45;&#45;q2_0</title>
<path fill="none" stroke="#8a4b8f" d="M188.68,-124.93C208.24,-122.59 235.02,-119.4 254.56,-117.07"/>
<text text-anchor="start" x="206.59" y="-124.8" font-family="Times,serif" font-size="9.00" fill="#8a4b8f">(0.5+0j)</text>
</g>
<!-- q2_1 -->
<g id="node6" class="node">
<title>q2_1</title>
<ellipse fill="#add8e6" stroke="#add8e6" cx="281.24" cy="-43" rx="26.8" ry="26.8"/>
<text text-anchor="middle" x="281.24" y="-39.3" font-family="Times,serif" font-size="14.00">|1⟩</text>
</g>
<!-- q1_0&#45;&#45;q2_1 -->
<g id="edge4" class="edge">
<title>q1_0&#45;&#45;q2_1</title>
<path fill="none" stroke="#698a56" d="M183.91,-112.8C205.13,-97.43 237.76,-73.78 259.05,-58.35"/>
<text text-anchor="start" x="206.59" y="-97.8" font-family="Times,serif" font-size="9.00" fill="#698a56">(0.5+0j)</text>
</g>
<!-- q1_1&#45;&#45;q2_0 -->
<g id="edge6" class="edge">
<title>q1_1&#45;&#45;q2_0</title>
<path fill="none" stroke="#cca714" d="M186.12,-68.26C206.55,-78.19 236.18,-92.59 256.71,-102.57"/>
<text text-anchor="start" x="206.59" y="-65.8" font-family="Times,serif" font-size="9.00" fill="#cca714">(0.5+0j)</text>
</g>
<!-- q1_1&#45;&#45;q2_1 -->
<g id="edge8" class="edge">
<title>q1_1&#45;&#45;q2_1</title>
<path fill="none" stroke="#1c711e" d="M188.68,-53.93C208.24,-51.59 235.02,-48.4 254.56,-46.07"/>
<text text-anchor="start" x="206.59" y="-32.8" font-family="Times,serif" font-size="9.00" fill="#1c711e">(0.5+0j)</text>
</g>
</g>
</svg>
