<?xml version="1.0" encoding="UTF-8" standalone="no"?>
<!DOCTYPE svg PUBLIC "-//W3C//DTD SVG 1.1//EN"
 "http://www.w3.org/Graphics/SVG/1.1/DTD/svg11.dtd">
<!-- Generated by graphviz version 2.43.0 (0)
 -->
<!-- Title: arks_repr Pages: 1 -->
<svg width="213pt" height="290pt"
 viewBox="0.00 0.00 212.59 290.00" xmlns="http://www.w3.org/2000/svg" xmlns:xlink="http://www.w3.org/1999/xlink">
<g id="graph0" class="graph" transform="scale(1 1) rotate(0) translate(4 286)">
<title>arks_repr</title>
<polygon fill="white" stroke="transparent" points="-4,4 -4,-286 208.59,-286 208.59,4 -4,4"/>
<g id="clust1" class="cluster">
<title>clusterQ0</title>
<polygon fill="none" stroke="black" points="8,-39 8,-274 77.3,-274 77.3,-39 8,-39"/>
<text text-anchor="middle" x="42.65" y="-258.8" font-family="Times,serif" font-size="14.00">Q0</text>
</g>
<g id="clust2" class="cluster">
<title>clusterQ1</title>
<polygon fill="none" stroke="black" points="127.3,-8 127.3,-243 196.59,-243 196.59,-8 127.3,-8"/>
<text text-anchor="middle" x="161.94" y="-227.8" font-family="Times,serif" font-size="14.00">Q1</text>
</g>
<!-- q0_0 -->
<g id="node1" class="node">
<title>q0_0</title>
<ellipse fill="#add8e6" stroke="#add8e6" cx="42.65" cy="-216" rx="26.8" ry="26.8"/>
<text text-anchor="middle" x="42.65" y="-212.3" font-family="Times,serif" font-size="14.00">|0⟩</text>
</g>
<!-- q1_0 -->
<g id="node4" class="node">
<title>q1_0</title>
<ellipse fill="#add8e6" stroke="#add8e6" cx="161.94" cy="-185" rx="26.8" ry="26.8"/>
<text text-anchor="middle" x="161.94" y="-181.3" font-family="Times,serif" font-size="14.00">|0⟩</text>
</g>
<!-- q0_0&#45;&#45;q1_0 -->
<g id="edge1" class="edge">
<title>q0_0&#45;&#45;q1_0</title>
<path fill="none" stroke="#48c0d7" d="M68.52,-209.43C88.43,-204.16 116.21,-196.82 136.1,-191.56"/>
<text text-anchor="start" x="87.3" y="-206.8" font-family="Times,serif" font-size="9.00" fill="#48c0d7">(0.5+0j)</text>
</g>
<!-- q0_1 -->
<g id="node2" class="node">
<title>q0_1</title>
<ellipse fill="#add8e6" stroke="#add8e6" cx="42.65" cy="-145" rx="26.8" ry="26.8"/>
<text text-anchor="middle" x="42.65" y="-141.3" font-family="Times,serif" font-size="14.00">|1⟩</text>
</g>
<!-- q0_2 -->
<g id="node3" class="node">
<title>q0_2</title>
<ellipse fill="#add8e6" stroke="#add8e6" cx="42.65" cy="-74" rx="26.8" ry="26.8"/>
<text text-anchor="middle" x="42.65" y="-70.3" font-family="Times,serif" font-size="14.00">|2⟩</text>
</g>
<!-- q0_2&#45;&#45;q1_0 -->
<g id="edge2" class="edge">
<title>q0_2&#45;&#45;q1_0</title>
<path fill="none" stroke="#50003d" d="M62.49,-91.83C84.25,-112.43 119.85,-146.11 141.75,-166.84"/>
<text text-anchor="start" x="87.3" y="-144.8" font-family="Times,serif" font-size="9.00" fill="#50003d">(0.5+0j)</text>
</g>
<!-- q1_1 -->
<g id="node5" class="node">
<title>q1_1</title>
<ellipse fill="#add8e6" stroke="#add8e6" cx="161.94" cy="-114" rx="26.8" ry="26.8"/>
<text text-anchor="middle" x="161.94" y="-110.3" font-family="Times,serif" font-size="14.00">|1⟩</text>
</g>
<!-- q0_2&#45;&#45;q1_1 -->
<g id="edge3" class="edge">
<title>q0_2&#45;&#45;q1_1</title>
<path fill="none" stroke="#699c18" d="M68.24,-82.39C88.26,-89.21 116.38,-98.8 136.39,-105.63"/>
<text text-anchor="start" x="87.3" y="-100.8" font-family="Times,serif" font-size="9.00" fill="#699c18">(0.5+0j)</text>
</g>
<!-- q1_2 -->
<g id="node6" class="node">
<title>q1_2</title>
<ellipse fill="#add8e6" stroke="#add8e6" cx="161.94" cy="-43" rx="26.8" ry="26.8"/>
<text text-anchor="middle" x="161.94" y="-39.3" font-family="Times,serif" font-size="14.00">|2⟩</text>
</g>
<!-- q0_2&#45;&#45;q1_2 -->
<g id="edge4" class="edge">
<title>q0_2&#45;&#45;q1_2</title>
<path fill="none" stroke="#4f545b" d="M68.52,-67.43C88.43,-62.16 116.21,-54.82 136.1,-49.56"/>
<text text-anchor="start" x="87.3" y="-64.8" font-family="Times,serif" font-size="9.00" fill="#4f545b">(0.5+0j)</text>
</g>
</g>
</svg>
